<svg width="550" height="470" viewBox="0 0 550 470" fill="none" xmlns="http://www.w3.org/2000/svg">
<g clip-path="url(#clip0_54_1764)">
<path d="M256.073 429.491C259.261 430.612 262.685 430.893 266.014 430.306C269.343 429.72 272.465 428.286 275.078 426.143C281.735 420.555 283.823 411.353 285.521 402.83L290.544 377.619L280.028 384.86C272.465 390.067 264.732 395.442 259.496 402.984C254.26 410.526 251.975 420.823 256.181 428.985" fill="#E4E4E4"/>
<path d="M257.696 461.768C256.373 452.125 255.011 442.358 255.942 432.611C256.766 423.955 259.407 415.502 264.784 408.569C267.638 404.896 271.11 401.749 275.045 399.27C276.071 398.622 277.016 400.248 275.994 400.893C269.185 405.196 263.918 411.55 260.953 419.04C257.679 427.368 257.153 436.447 257.717 445.294C258.058 450.644 258.783 455.959 259.51 461.268C259.568 461.508 259.532 461.761 259.41 461.975C259.288 462.19 259.089 462.35 258.853 462.424C258.613 462.489 258.357 462.456 258.14 462.333C257.924 462.21 257.765 462.007 257.697 461.767L257.696 461.768Z" fill="#F2F2F2"/>
<path d="M267.224 446.295C268.591 448.374 270.471 450.066 272.682 451.208C274.893 452.349 277.361 452.902 279.848 452.813C286.24 452.51 291.567 448.05 296.362 443.815L310.547 431.29L301.159 430.841C294.408 430.518 287.482 430.214 281.052 432.299C274.621 434.383 268.691 439.392 267.515 446.048" fill="#E4E4E4"/>
<path d="M253.955 467.312C260.327 456.037 267.718 443.506 280.925 439.501C284.597 438.391 288.447 437.993 292.268 438.329C293.473 438.433 293.172 440.29 291.97 440.186C285.564 439.654 279.171 441.346 273.867 444.976C268.763 448.45 264.788 453.281 261.425 458.403C259.364 461.54 257.518 464.811 255.673 468.077C255.083 469.122 253.358 468.368 253.955 467.312Z" fill="#F2F2F2"/>
<path d="M465.47 330.647H0V0H465.47V330.647Z" fill="white"/>
<path d="M37.9164 135.803C36.7136 135.803 35.56 136.28 34.7095 137.131C33.8589 137.981 33.3811 139.135 33.3811 140.338C33.3811 141.541 33.8589 142.694 34.7095 143.545C35.56 144.395 36.7136 144.873 37.9164 144.873H195.107C196.308 144.871 197.46 144.392 198.308 143.542C199.157 142.692 199.634 141.539 199.634 140.338C199.634 139.137 199.157 137.984 198.308 137.134C197.46 136.284 196.308 135.805 195.107 135.803H37.9164Z" fill="#418596"/>
<path d="M37.9165 163.015C36.7137 163.012 35.5591 163.488 34.7067 164.336C33.8544 165.185 33.3741 166.338 33.3716 167.54C33.3691 168.743 33.8445 169.898 34.6932 170.75C35.542 171.603 36.6945 172.083 37.8974 172.085H195.223C196.426 172.085 197.579 171.608 198.43 170.757C199.281 169.906 199.758 168.753 199.758 167.55C199.758 166.347 199.281 165.194 198.43 164.343C197.579 163.492 196.426 163.015 195.223 163.015H37.9165Z" fill="#418596"/>
<path d="M37.9165 189.838C36.7137 189.835 35.5591 190.31 34.7067 191.159C33.8544 192.008 33.3741 193.161 33.3716 194.363C33.3691 195.566 33.8445 196.721 34.6932 197.573C35.542 198.426 36.6945 198.906 37.8974 198.908H73.3003C74.5031 198.908 75.6567 198.43 76.5073 197.58C77.3578 196.729 77.8356 195.576 77.8356 194.373C77.8356 193.17 77.3578 192.017 76.5073 191.166C75.6567 190.315 74.5031 189.838 73.3003 189.838H37.9165Z" fill="#418596"/>
<path d="M465.47 330.647H0V0H465.47V330.647ZM7.65157 322.995H457.819V7.65157H7.65157V322.995Z" fill="#E5E5E5"/>
<path d="M319.009 257.993C316.846 257.99 314.771 258.846 313.239 260.373C311.707 261.899 310.844 263.972 310.839 266.134C310.835 268.297 311.689 270.373 313.214 271.906C314.74 273.439 316.811 274.304 318.974 274.31H396.873C397.945 274.311 399.006 274.101 399.997 273.691C400.988 273.282 401.888 272.681 402.647 271.923C403.405 271.165 404.007 270.266 404.417 269.275C404.828 268.285 405.039 267.224 405.039 266.152C405.039 265.08 404.828 264.018 404.417 263.028C404.007 262.037 403.405 261.138 402.647 260.38C401.888 259.622 400.988 259.022 399.997 258.612C399.006 258.203 397.945 257.992 396.873 257.993H319.009Z" fill="#E4E4E4"/>
<path d="M319.009 159.197C316.846 159.194 314.771 160.05 313.239 161.577C311.707 163.103 310.844 165.176 310.839 167.338C310.835 169.501 311.689 171.577 313.214 173.11C314.74 174.643 316.811 175.507 318.974 175.514H396.873C397.945 175.515 399.006 175.304 399.997 174.895C400.988 174.485 401.888 173.885 402.647 173.127C403.405 172.369 404.007 171.47 404.417 170.479C404.828 169.489 405.039 168.428 405.039 167.355C405.039 166.283 404.828 165.222 404.417 164.232C404.007 163.241 403.405 162.342 402.647 161.584C401.888 160.826 400.988 160.225 399.997 159.816C399.006 159.406 397.945 159.196 396.873 159.197H319.009Z" fill="#E4E4E4"/>
<path d="M37.9165 261.772C37.3209 261.771 36.7309 261.887 36.1802 262.114C35.6294 262.34 35.1288 262.673 34.7067 263.094C34.2847 263.514 33.9496 264.013 33.7205 264.563C33.4914 265.113 33.3728 265.702 33.3716 266.298C33.3703 266.893 33.4864 267.483 33.7132 268.034C33.9399 268.585 34.273 269.086 34.6932 269.508C35.1135 269.93 35.6127 270.265 36.1625 270.494C36.7123 270.723 37.3018 270.841 37.8974 270.843H195.223C196.426 270.843 197.579 270.365 198.43 269.514C199.281 268.664 199.758 267.51 199.758 266.307C199.758 265.105 199.281 263.951 198.43 263.1C197.579 262.25 196.426 261.772 195.223 261.772H37.9165Z" fill="#E4E4E4"/>
<path d="M37.9165 288.595C37.3209 288.594 36.7309 288.71 36.1802 288.937C35.6294 289.163 35.1288 289.496 34.7067 289.917C34.2847 290.337 33.9496 290.836 33.7205 291.386C33.4914 291.936 33.3728 292.525 33.3716 293.121C33.3703 293.716 33.4864 294.306 33.7132 294.857C33.9399 295.408 34.273 295.909 34.6932 296.331C35.1135 296.753 35.6127 297.088 36.1625 297.317C36.7123 297.546 37.3018 297.664 37.8974 297.666H73.3003C74.5031 297.666 75.6567 297.188 76.5073 296.337C77.3578 295.487 77.8356 294.333 77.8356 293.13C77.8356 291.927 77.3578 290.774 76.5073 289.923C75.6567 289.073 74.5031 288.595 73.3003 288.595H37.9165Z" fill="#E4E4E4"/>
<path d="M37.9164 234.56C36.7136 234.56 35.56 235.038 34.7095 235.888C33.8589 236.739 33.3811 237.892 33.3811 239.095C33.3811 240.298 33.8589 241.452 34.7095 242.302C35.56 243.153 36.7136 243.631 37.9164 243.631H195.107C196.308 243.628 197.46 243.15 198.308 242.299C199.157 241.449 199.634 240.297 199.634 239.095C199.634 237.894 199.157 236.742 198.308 235.891C197.46 235.041 196.308 234.562 195.107 234.56H37.9164Z" fill="#E4E4E4"/>
<path d="M37.9164 37.0452C36.7136 37.0452 35.56 37.5231 34.7095 38.3736C33.8589 39.2241 33.3811 40.3777 33.3811 41.5806C33.3811 42.7834 33.8589 43.937 34.7095 44.7875C35.56 45.6381 36.7136 46.1159 37.9164 46.1159H195.107C196.308 46.1136 197.46 45.6348 198.308 44.7845C199.157 43.9342 199.634 42.7819 199.634 41.5806C199.634 40.3792 199.157 39.2269 198.308 38.3766C197.46 37.5263 196.308 37.0475 195.107 37.0452H37.9164Z" fill="#E4E4E4"/>
<path d="M37.9165 64.2572C37.3209 64.256 36.7309 64.3721 36.1802 64.5988C35.6294 64.8256 35.1288 65.1586 34.7067 65.5789C34.2847 65.9991 33.9496 66.4984 33.7205 67.0482C33.4914 67.5979 33.3728 68.1874 33.3716 68.783C33.3703 69.3786 33.4864 69.9686 33.7132 70.5194C33.9399 71.0701 34.273 71.5708 34.6932 71.9928C35.1135 72.4148 35.6127 72.75 36.1625 72.979C36.7123 73.2081 37.3018 73.3267 37.8974 73.3279H195.223C195.819 73.3279 196.408 73.2106 196.959 72.9827C197.509 72.7548 198.009 72.4207 198.43 71.9996C198.851 71.5784 199.185 71.0784 199.413 70.5282C199.641 69.9779 199.758 69.3882 199.758 68.7926C199.758 68.197 199.641 67.6072 199.413 67.057C199.185 66.5067 198.851 66.0068 198.43 65.5856C198.009 65.1645 197.509 64.8304 196.959 64.6025C196.408 64.3746 195.819 64.2572 195.223 64.2572H37.9165Z" fill="#E4E4E4"/>
<path d="M37.9165 91.0803C36.7137 91.0777 35.5591 91.5531 34.7067 92.4019C33.8544 93.2506 33.3741 94.4032 33.3716 95.606C33.3691 96.8089 33.8445 97.9635 34.6932 98.8158C35.542 99.6681 36.6945 100.148 37.8974 100.151H73.3003C74.5031 100.151 75.6567 99.6731 76.5073 98.8226C77.3578 97.972 77.8356 96.8185 77.8356 95.6156C77.8356 94.4128 77.3578 93.2592 76.5073 92.4086C75.6567 91.5581 74.5031 91.0803 73.3003 91.0803H37.9165Z" fill="#E4E4E4"/>
<path d="M319.009 60.4786C316.846 60.4757 314.771 61.3315 313.239 62.8581C311.707 64.3846 310.844 66.457 310.839 68.6196C310.835 70.7823 311.689 72.8582 313.214 74.3912C314.74 75.9242 316.811 76.7888 318.974 76.795H396.873C397.945 76.7961 399.006 76.5858 399.997 76.1763C400.988 75.7668 401.888 75.166 402.647 74.4084C403.405 73.6507 404.007 72.751 404.417 71.7607C404.828 70.7704 405.039 69.7088 405.039 68.6368C405.039 67.5648 404.828 66.5033 404.417 65.5129C404.007 64.5226 403.405 63.6229 402.647 62.8652C401.888 62.1076 400.988 61.5068 399.997 61.0973C399.006 60.6878 397.945 60.4776 396.873 60.4786H319.009Z" fill="#E4E4E4"/>
<path d="M335.419 83.1901C343.5 83.1901 350.05 76.6397 350.05 68.5593C350.05 60.479 343.5 53.9286 335.419 53.9286C327.339 53.9286 320.789 60.479 320.789 68.5593C320.789 76.6397 327.339 83.1901 335.419 83.1901Z" fill="#CACACA"/>
<path d="M360.991 170.893C360.829 172.068 360.926 173.263 361.276 174.396C361.626 175.529 362.22 176.571 363.016 177.45C363.813 178.328 364.792 179.021 365.885 179.48C366.978 179.939 368.159 180.153 369.344 180.106L377.113 196.932L388.489 194.704L377.184 171.097C376.974 169.112 376.042 167.273 374.567 165.929C373.091 164.584 371.174 163.828 369.178 163.803C367.182 163.778 365.246 164.486 363.737 165.792C362.228 167.099 361.251 168.914 360.991 170.893Z" fill="#FFB6B6"/>
<path d="M439.697 234.566L407.997 218.886L385.629 180.922L369.993 188.485L390.284 232.342L441.544 261.933L439.697 234.566Z" fill="#3F3D56"/>
<path d="M368.131 458.995L358.166 458.994L353.425 430.263L368.133 430.264L368.131 458.995Z" fill="#FFB6B6"/>
<path d="M370.672 468.654L338.541 468.653V468.247C338.541 464.93 339.859 461.749 342.204 459.404C344.55 457.058 347.731 455.741 351.047 455.74H351.048L370.673 455.741L370.672 468.654Z" fill="#2F2E41"/>
<path d="M467.6 440.718L460.647 447.856L436.756 431.206L447.018 420.671L467.6 440.718Z" fill="#FFB6B6"/>
<path d="M476.293 445.637L453.874 468.654L453.582 468.371C451.206 466.056 449.847 462.893 449.803 459.576C449.76 456.26 451.035 453.062 453.349 450.686L467.042 436.627L476.293 445.637Z" fill="#2F2E41"/>
<path d="M380.451 288.002H373.558C355.641 307.581 341.964 330.653 333.387 355.768L325.153 379.875L354.498 441.316L372.809 441.643L351.88 376.413L372.965 348.452L374.028 404.66L441.892 440.231L455.474 420.167L400.251 389.97L409.656 342.16C409.656 342.16 428.577 326.382 417.559 301.715L380.451 288.002Z" fill="#2F2E41"/>
<path d="M471.16 225.433L442.52 212.89L410.997 226.858C410.997 226.858 402.07 231.936 407.76 244.941L373.559 288.002C373.559 288.002 373.622 288.02 416.605 301.715L455.386 267.563C461.274 262.377 465.794 255.821 468.545 248.472C471.297 241.124 472.195 233.211 471.16 225.433Z" fill="#3F3D56"/>
<path d="M466.353 212.519C477.379 212.519 486.317 203.581 486.317 192.556C486.317 181.53 477.379 172.592 466.353 172.592C455.328 172.592 446.39 181.53 446.39 192.556C446.39 203.581 455.328 212.519 466.353 212.519Z" fill="#FFB6B6"/>
<path d="M492.208 166.063C487.626 162.336 480.52 161.522 475.79 165.059C467.541 160.729 456.392 162.988 450.479 170.187C448.351 172.778 446.843 176.282 447.896 179.465C448.949 182.648 453.49 184.519 455.857 182.145L455.814 183.123C457.946 185.258 459.424 187.957 460.075 190.903C460.726 193.849 460.521 196.92 459.487 199.754C458.452 202.588 456.63 205.068 454.234 206.902C451.838 208.736 448.969 209.848 445.963 210.107C452.505 212.75 459.047 215.392 465.588 218.035C468.341 219.147 471.181 220.277 474.15 220.262C477.119 220.246 480.283 218.804 481.435 216.068C482.263 218.607 483.091 221.146 483.92 223.684C488.796 215.927 492.807 207.658 495.88 199.026C497.861 193.462 499.462 187.643 499.248 181.74C499.034 175.838 496.789 169.79 492.208 166.063Z" fill="#2F2E41"/>
<path d="M335.419 280.705C343.5 280.705 350.05 274.154 350.05 266.074C350.05 257.994 343.5 251.443 335.419 251.443C327.339 251.443 320.789 257.994 320.789 266.074C320.789 274.154 327.339 280.705 335.419 280.705Z" fill="#CACACA"/>
<path d="M380.937 181.986C389.017 181.986 395.568 175.436 395.568 167.355C395.568 159.275 389.017 152.725 380.937 152.725C372.857 152.725 366.306 159.275 366.306 167.355C366.306 175.436 372.857 181.986 380.937 181.986Z" fill="#418596"/>
<path d="M381.311 162.765C381.149 163.94 381.246 165.135 381.596 166.268C381.946 167.401 382.54 168.443 383.337 169.322C384.133 170.2 385.112 170.893 386.205 171.352C387.299 171.811 388.479 172.025 389.664 171.978L397.433 188.804L408.81 186.576L397.504 162.969C397.294 160.984 396.363 159.145 394.887 157.801C393.412 156.456 391.494 155.7 389.498 155.675C387.502 155.649 385.566 156.357 384.057 157.664C382.548 158.971 381.571 160.786 381.311 162.765Z" fill="#FFB6B6"/>
<path d="M460.017 226.438L428.318 210.758L405.949 172.794L390.313 180.357L410.605 224.214L461.864 253.805L460.017 226.438Z" fill="#3F3D56"/>
<path d="M549.187 469.279H239.503C239.288 469.279 239.081 469.193 238.929 469.041C238.776 468.888 238.691 468.681 238.691 468.466C238.691 468.25 238.776 468.043 238.929 467.891C239.081 467.739 239.288 467.653 239.503 467.653H549.187C549.403 467.653 549.609 467.739 549.762 467.891C549.914 468.043 550 468.25 550 468.466C550 468.681 549.914 468.888 549.762 469.041C549.609 469.193 549.403 469.279 549.187 469.279Z" fill="#CACACA"/>
</g>
<defs>
<clipPath id="clip0_54_1764">
<rect width="550" height="469.279" fill="white"/>
</clipPath>
</defs>
</svg>
