<svg width="380" height="245" viewBox="0 0 380 245" fill="none" xmlns="http://www.w3.org/2000/svg">
<g clip-path="url(#clip0_118_1560)">
<path d="M276.56 19.4157H27.2605C27.0074 19.4103 26.7664 19.306 26.5893 19.125C26.4122 18.9441 26.313 18.7009 26.313 18.4477C26.313 18.1945 26.4122 17.9514 26.5893 17.7705C26.7664 17.5895 27.0074 17.4852 27.2605 17.4798H276.56C276.813 17.4852 277.054 17.5895 277.231 17.7705C277.408 17.9514 277.508 18.1945 277.508 18.4477C277.508 18.7009 277.408 18.9441 277.231 19.125C277.054 19.306 276.813 19.4103 276.56 19.4157Z" fill="#CACACA"/>
<path d="M43.8294 12.5376C46.9624 12.5376 49.5021 9.94125 49.5021 6.73849C49.5021 3.53574 46.9624 0.939392 43.8294 0.939392C40.6965 0.939392 38.1567 3.53574 38.1567 6.73849C38.1567 9.94125 40.6965 12.5376 43.8294 12.5376Z" fill="#3F3D56"/>
<path d="M63.4256 12.5376C66.5586 12.5376 69.0983 9.94125 69.0983 6.73849C69.0983 3.53574 66.5586 0.939392 63.4256 0.939392C60.2927 0.939392 57.7529 3.53574 57.7529 6.73849C57.7529 9.94125 60.2927 12.5376 63.4256 12.5376Z" fill="#3F3D56"/>
<path d="M83.0223 12.5376C86.1552 12.5376 88.695 9.94125 88.695 6.73849C88.695 3.53574 86.1552 0.939392 83.0223 0.939392C79.8894 0.939392 77.3496 3.53574 77.3496 6.73849C77.3496 9.94125 79.8894 12.5376 83.0223 12.5376Z" fill="#3F3D56"/>
<path d="M264.761 2.37677H250.841C250.565 2.38226 250.302 2.49573 250.109 2.6928C249.916 2.88987 249.808 3.15483 249.808 3.4308C249.808 3.70676 249.916 3.97172 250.109 4.16879C250.302 4.36586 250.565 4.47932 250.841 4.48482H264.761C265.037 4.47932 265.3 4.36586 265.493 4.16879C265.686 3.97172 265.794 3.70676 265.794 3.4308C265.794 3.15483 265.686 2.88987 265.493 2.6928C265.3 2.49573 265.037 2.38226 264.761 2.37677Z" fill="#3F3D56"/>
<path d="M264.761 6.33325H250.841C250.565 6.33875 250.302 6.45222 250.109 6.64928C249.916 6.84635 249.808 7.11132 249.808 7.38728C249.808 7.66324 249.916 7.92821 250.109 8.12528C250.302 8.32234 250.565 8.43581 250.841 8.4413H264.761C265.037 8.43581 265.3 8.32234 265.493 8.12528C265.686 7.92821 265.794 7.66324 265.794 7.38728C265.794 7.11132 265.686 6.84635 265.493 6.64928C265.3 6.45222 265.037 6.33875 264.761 6.33325Z" fill="#3F3D56"/>
<path d="M264.761 10.2845H250.841C250.565 10.29 250.302 10.4034 250.109 10.6005C249.916 10.7976 249.808 11.0625 249.808 11.3385C249.808 11.6145 249.916 11.8794 250.109 12.0765C250.302 12.2736 250.565 12.387 250.841 12.3925H264.761C265.037 12.387 265.3 12.2736 265.493 12.0765C265.686 11.8794 265.794 11.6145 265.794 11.3385C265.794 11.0625 265.686 10.7976 265.493 10.6005C265.3 10.4034 265.037 10.29 264.761 10.2845Z" fill="#3F3D56"/>
<path d="M95.8174 194.995L96.1589 71.806C96.1686 69.3127 97.167 66.925 98.935 65.1669C100.703 63.4087 103.096 62.4236 105.589 62.4277L198.625 62.6856C201.118 62.6953 203.506 63.6937 205.264 65.4617C207.022 67.2296 208.007 69.6228 208.003 72.1161L207.661 195.305C207.652 197.798 206.653 200.186 204.885 201.944C203.117 203.702 200.724 204.688 198.231 204.683L105.196 204.426C102.702 204.416 100.315 203.417 98.5566 201.65C96.7984 199.882 95.8133 197.488 95.8174 194.995Z" fill="#E6E6E6"/>
<path d="M103.057 157.807L103.276 78.6095C103.285 76.2744 104.22 74.0383 105.876 72.3917C107.532 70.7451 109.773 69.8225 112.108 69.8264L192.064 70.0481C194.399 70.0571 196.635 70.9921 198.282 72.6478C199.929 74.3036 200.851 76.5449 200.848 78.8801L200.544 188.502C200.534 190.837 199.599 193.073 197.944 194.719C196.288 196.366 194.046 197.289 191.711 197.285L142.18 197.147C131.779 197.107 121.818 192.942 114.484 185.567C107.149 178.192 103.04 168.208 103.057 157.807Z" fill="white"/>
<path d="M183.083 131.651H120.738C119.746 131.651 118.794 131.257 118.093 130.555C117.391 129.854 116.997 128.902 116.997 127.91C116.997 126.918 117.391 125.967 118.093 125.265C118.794 124.564 119.746 124.169 120.738 124.169H183.083C184.075 124.169 185.026 124.564 185.728 125.265C186.429 125.967 186.824 126.918 186.824 127.91C186.824 128.902 186.429 129.854 185.728 130.555C185.026 131.257 184.075 131.651 183.083 131.651Z" fill="#418596"/>
<path d="M134.454 111.137H120.738C119.746 111.137 118.794 110.742 118.093 110.041C117.391 109.339 116.997 108.388 116.997 107.396C116.997 106.404 117.391 105.452 118.093 104.751C118.794 104.049 119.746 103.655 120.738 103.655H134.454C135.446 103.655 136.397 104.049 137.099 104.751C137.8 105.452 138.194 106.404 138.194 107.396C138.194 108.388 137.8 109.339 137.099 110.041C136.397 110.742 135.446 111.137 134.454 111.137Z" fill="#418596"/>
<path d="M183.083 164.541H120.738C119.746 164.541 118.794 164.147 118.093 163.445C117.391 162.744 116.997 161.792 116.997 160.8C116.997 159.808 117.391 158.857 118.093 158.155C118.794 157.454 119.746 157.06 120.738 157.06H183.083C184.075 157.06 185.026 157.454 185.728 158.155C186.429 158.857 186.824 159.808 186.824 160.8C186.824 161.792 186.429 162.744 185.728 163.445C185.026 164.147 184.075 164.541 183.083 164.541Z" fill="#418596"/>
<path d="M183.083 148.096H120.738C119.746 148.096 118.794 147.702 118.093 147C117.391 146.299 116.997 145.347 116.997 144.355C116.997 143.363 117.391 142.412 118.093 141.71C118.794 141.009 119.746 140.615 120.738 140.615H183.083C184.075 140.615 185.026 141.009 185.728 141.71C186.429 142.412 186.824 143.363 186.824 144.355C186.824 145.347 186.429 146.299 185.728 147C185.026 147.702 184.075 148.096 183.083 148.096Z" fill="#418596"/>
<path d="M14.8843 244.061C23.1046 244.061 29.7685 237.397 29.7685 229.176C29.7685 220.956 23.1046 214.292 14.8843 214.292C6.66391 214.292 0 220.956 0 229.176C0 237.397 6.66391 244.061 14.8843 244.061Z" fill="#418596"/>
<path d="M12.854 236.923C12.597 236.923 12.3435 236.863 12.1136 236.748C11.8837 236.633 11.6838 236.466 11.5296 236.26L7.46895 230.846C7.33821 230.672 7.24303 230.474 7.18886 230.264C7.13469 230.053 7.12258 229.833 7.15323 229.618C7.18389 229.403 7.2567 229.195 7.36751 229.008C7.47832 228.821 7.62495 228.657 7.79902 228.527C7.97308 228.396 8.17117 228.301 8.38196 228.247C8.59275 228.193 8.81211 228.182 9.02748 228.212C9.24286 228.243 9.45003 228.316 9.63715 228.427C9.82427 228.538 9.98767 228.685 10.118 228.859L12.7746 232.401L19.5978 222.167C19.8416 221.802 20.2203 221.549 20.6506 221.463C21.081 221.377 21.5279 221.465 21.893 221.709C22.2582 221.952 22.5118 222.331 22.598 222.761C22.6843 223.191 22.5962 223.638 22.3531 224.004L14.2317 236.186C14.0848 236.406 13.8872 236.588 13.6555 236.716C13.4238 236.844 13.1648 236.915 12.9001 236.922C12.8847 236.923 12.8693 236.923 12.854 236.923Z" fill="white"/>
<path d="M15.0169 196.562H13.9453V199.777H15.0169V196.562Z" fill="#2F2E41"/>
<path d="M15.0169 190.424H13.9453V184.286H15.0169V190.424ZM15.0169 178.147H13.9453V172.009H15.0169V178.147ZM15.0169 165.871H13.9453V159.733H15.0169V165.871ZM15.0169 153.595H13.9453V147.457H15.0169V153.595ZM15.0169 141.318H13.9453V135.18H15.0169V141.318Z" fill="#2F2E41"/>
<path d="M15.0169 129.042H13.9453V125.292H17.6958V126.363H15.0169V129.042Z" fill="#2F2E41"/>
<path d="M68.2759 126.363H61.9535V125.291H68.2759V126.363ZM55.631 126.363H49.3085V125.291H55.631V126.363ZM42.986 126.363H36.6635V125.291H42.986V126.363ZM30.341 126.363H24.0186V125.291H30.341V126.363Z" fill="#2F2E41"/>
<path d="M77.8134 125.291H74.5986V126.363H77.8134V125.291Z" fill="#2F2E41"/>
<path d="M359.698 164.228H358.626V167.443H359.698V164.228Z" fill="#2F2E41"/>
<path d="M359.698 157.191H358.626V150.154H359.698V157.191ZM359.698 143.116H358.626V136.079H359.698V143.116Z" fill="#2F2E41"/>
<path d="M359.697 129.042H358.626V126.363H355.947V125.292H359.697V129.042Z" fill="#2F2E41"/>
<path d="M349.286 126.363H342.625V125.291H349.286V126.363ZM335.964 126.363H329.303V125.291H335.964V126.363ZM322.643 126.363H315.982V125.291H322.643V126.363ZM309.321 126.363H302.66V125.291H309.321V126.363ZM296 126.363H289.339V125.291H296L296 126.363ZM282.678 126.363H276.017V125.291H282.678V126.363ZM269.356 126.363H262.696V125.291H269.356V126.363ZM256.035 126.363H249.374V125.291H256.035V126.363ZM242.713 126.363H236.052V125.291H242.713V126.363Z" fill="#2F2E41"/>
<path d="M229.391 125.291H226.177V126.363H229.391V125.291Z" fill="#2F2E41"/>
<path d="M359.499 206.555C367.719 206.555 374.383 199.891 374.383 191.671C374.383 183.451 367.719 176.787 359.499 176.787C351.278 176.787 344.614 183.451 344.614 191.671C344.614 199.891 351.278 206.555 359.499 206.555Z" fill="#418596"/>
<path d="M362.427 191.671L365.355 188.743C365.742 188.354 365.959 187.828 365.958 187.28C365.958 186.731 365.74 186.206 365.352 185.818C364.964 185.43 364.438 185.212 363.89 185.212C363.342 185.211 362.815 185.428 362.427 185.815L359.499 188.743L356.571 185.815C356.182 185.428 355.656 185.211 355.108 185.212C354.559 185.212 354.033 185.43 353.646 185.818C353.258 186.206 353.04 186.731 353.039 187.28C353.039 187.828 353.256 188.354 353.643 188.743L356.571 191.671L353.643 194.599C353.449 194.791 353.296 195.019 353.191 195.271C353.086 195.522 353.032 195.792 353.031 196.065C353.031 196.337 353.084 196.607 353.188 196.859C353.292 197.111 353.445 197.339 353.638 197.532C353.83 197.725 354.059 197.878 354.311 197.982C354.563 198.086 354.833 198.139 355.105 198.139C355.378 198.138 355.647 198.084 355.899 197.979C356.15 197.874 356.379 197.721 356.571 197.527L359.499 194.599L362.427 197.527C362.619 197.721 362.847 197.874 363.099 197.979C363.35 198.084 363.62 198.138 363.892 198.139C364.165 198.139 364.435 198.086 364.687 197.982C364.938 197.878 365.167 197.725 365.36 197.532C365.553 197.339 365.705 197.111 365.809 196.859C365.913 196.607 365.967 196.337 365.966 196.065C365.966 195.792 365.912 195.522 365.807 195.271C365.702 195.019 365.548 194.791 365.355 194.599L362.427 191.671Z" fill="white"/>
<path d="M317.737 102.612L320.952 121.694L351.492 105.291L317.737 102.612Z" fill="#2F2E41"/>
<path d="M314.088 221.259L307.69 220.998L305.653 196.197L315.095 196.582L314.088 221.259Z" fill="#FFB6B6"/>
<path d="M314.523 150.297C326.128 146.759 328.51 131.632 334.883 128.33C334.866 120.341 335.188 95.5652 327.213 96.037C322.771 96.2997 298.025 141.596 296.964 149.1C294.996 163.023 305.504 198.558 304.285 200.999L316.487 201.772L316.558 200.811C316.751 198.206 318.697 190.351 316.478 188.972L315.637 188.45C315.644 185.741 316.236 181.127 313.792 179.957C313.761 179.942 313.734 179.921 313.711 179.895C313.689 179.869 313.673 179.838 313.663 179.805C313.653 179.772 313.65 179.737 313.655 179.703C313.659 179.669 313.671 179.636 313.689 179.607L314.523 150.297Z" fill="#2F2E41"/>
<path d="M317.385 226.808L313.106 227.06L312.105 223.066L310.387 227.22L299.04 227.889C298.496 227.921 297.956 227.779 297.499 227.482C297.042 227.186 296.691 226.751 296.499 226.241C296.306 225.731 296.282 225.174 296.429 224.649C296.576 224.124 296.887 223.66 297.316 223.325L306.009 216.533L305.768 212.449L315.333 212.456L317.385 226.808Z" fill="#2F2E41"/>
<path d="M362.853 176.561L369.235 177.078L374.266 152.708L364.847 151.944L362.853 176.561Z" fill="#FFB6B6"/>
<path d="M360.351 114.799C354.627 124.858 344.387 127.26 333.769 129.02C329.153 122.499 322.115 113.409 328.888 109.171C332.66 106.812 365.357 87.7213 370.404 93.3749C383.582 108.135 374.181 155.634 374.991 154.584L364.553 154.432L363.938 153.69C363.12 152.704 362.588 151.512 362.399 150.244C362.21 148.977 362.372 147.681 362.867 146.499L363.25 145.586C362.478 144.507 362.028 143.23 361.952 141.906C361.875 140.581 362.177 139.261 362.82 138.1L362.952 137.862L360.351 114.799Z" fill="#2F2E41"/>
<path d="M362.686 167.672L372.181 168.826L371.446 172.85L379.251 180.647C379.636 181.032 379.888 181.53 379.971 182.068C380.053 182.607 379.961 183.158 379.708 183.64C379.455 184.123 379.055 184.512 378.565 184.751C378.075 184.99 377.522 185.066 376.986 184.968L365.804 182.928L364.603 178.595L363.124 182.438L358.908 181.669L362.686 167.672Z" fill="#2F2E41"/>
<path d="M337.877 34.5665H333.496C332.602 34.5665 331.72 34.7834 330.928 35.1986C330.135 35.6138 329.455 36.2149 328.946 36.9505L325.774 41.5318L317.872 42.9691C315.126 44.6644 313.058 47.2639 312.024 50.32C310.989 53.376 311.052 56.6972 312.202 59.7116C317.794 74.3376 320.494 101.751 315.058 113.863C315.058 113.863 348.032 116.85 356.314 106.898C364.596 96.946 357.922 48.4971 357.922 48.4971L345.599 41.5318L342.427 36.9506C341.918 36.215 341.238 35.6139 340.445 35.1987C339.653 34.7834 338.771 34.5665 337.877 34.5665Z" fill="#418596"/>
<path d="M358.312 120.171C358.683 119.781 358.964 119.314 359.134 118.803C359.305 118.292 359.362 117.75 359.3 117.215C359.239 116.681 359.061 116.166 358.779 115.707C358.497 115.248 358.118 114.857 357.668 114.56L364.887 90.8246L356.85 86.0024L352.39 115.81C351.942 116.598 351.799 117.523 351.988 118.41C352.177 119.297 352.684 120.083 353.414 120.621C354.144 121.159 355.046 121.41 355.949 121.327C356.851 121.244 357.692 120.833 358.312 120.171Z" fill="#FFB6B6"/>
<path d="M365.423 93.5035L355.778 89.753L356.19 84.9377L344.731 59.854C344.165 58.6141 343.878 57.2647 343.892 55.9017C343.906 54.5386 344.22 53.1953 344.811 51.9671C345.402 50.7389 346.257 49.6559 347.313 48.7951C348.37 47.9342 349.604 47.3166 350.926 46.9861C353.316 46.3917 355.843 46.7695 357.954 48.0364C360.065 49.3033 361.588 51.3559 362.187 53.7439L369.718 83.8784C370.59 88.5556 369.604 92.0488 365.423 93.5035Z" fill="#418596"/>
<path d="M352.082 19.9662C352.082 15.6251 350.357 11.4617 347.287 8.39203C344.218 5.32236 340.054 3.59784 335.713 3.59784C331.372 3.59784 327.209 5.32236 324.139 8.39203C321.069 11.4617 319.345 15.6251 319.345 19.9662V30.2266C319.346 30.809 319.577 31.3673 319.989 31.7791C320.401 32.1909 320.959 32.4226 321.541 32.4234H321.943C322.407 31.0939 322.69 29.7081 322.784 28.3031C323.63 29.5695 324.273 30.9595 324.692 32.4234H349.879C350.462 32.4228 351.021 32.1913 351.434 31.7796C351.847 31.3679 352.079 30.8095 352.082 30.2266C353.405 27.5262 354 24.4294 352.082 19.9662Z" fill="#2F2E41"/>
<path d="M335.053 32.3223C341.681 32.3223 347.054 26.9496 347.054 20.322C347.054 13.6945 341.681 8.32178 335.053 8.32178C328.426 8.32178 323.053 13.6945 323.053 20.322C323.053 26.9496 328.426 32.3223 335.053 32.3223Z" fill="#FFB8B8"/>
<path d="M322.724 20.2758C322.609 20.1434 322.524 19.988 322.475 19.82C322.425 19.652 322.413 19.4753 322.438 19.302L323.859 9.40323C323.887 9.20182 323.965 9.0106 324.086 8.8469C324.207 8.68319 324.366 8.55216 324.55 8.46565C331.806 5.06986 339.164 5.06557 346.42 8.45279C346.612 8.54403 346.778 8.68367 346.9 8.85805C347.022 9.03242 347.097 9.23558 347.118 9.44763L348.602 17.2161C348.618 17.3855 348.599 17.5564 348.545 17.718C348.492 17.8795 348.405 18.028 348.29 18.1541C348.059 18.4079 347.737 23.9901 347.393 23.9901C347.683 20.6629 346.982 19.071 344.444 20.6971C344.212 20.6965 343.984 20.63 343.788 20.5052C343.592 20.3805 343.436 20.2026 343.337 19.9924L342.299 17.767C342.231 17.6229 342.119 17.5046 341.979 17.4299C341.838 17.3552 341.677 17.3281 341.52 17.3528C341.363 17.3776 341.219 17.4527 341.108 17.5669C340.997 17.6811 340.927 17.8282 340.907 17.986L340.702 19.6269C340.665 19.9222 340.521 20.1938 340.298 20.3908C340.075 20.5878 339.788 20.6967 339.49 20.6971C335.249 22.8012 329.688 22.2349 323.647 20.6971C323.472 20.6971 323.299 20.6595 323.139 20.5868C322.98 20.5141 322.838 20.4081 322.724 20.2758Z" fill="#2F2E41"/>
<path d="M344.622 87.042H324.954C324.281 87.0412 323.635 86.7734 323.159 86.2971C322.683 85.8209 322.415 85.1752 322.414 84.5017V63.3605C322.415 62.687 322.683 62.0413 323.159 61.5651C323.635 61.0889 324.281 60.821 324.954 60.8203H344.622C345.296 60.821 345.942 61.0889 346.418 61.5651C346.894 62.0413 347.162 62.687 347.163 63.3605V84.5017C347.162 85.1752 346.894 85.8209 346.418 86.2971C345.942 86.7734 345.296 87.0412 344.622 87.042Z" fill="#3F3D56"/>
<path d="M325.508 65.387C326.321 65.387 326.981 64.7275 326.981 63.9139C326.981 63.1003 326.321 62.4407 325.508 62.4407C324.694 62.4407 324.035 63.1003 324.035 63.9139C324.035 64.7275 324.694 65.387 325.508 65.387Z" fill="#E6E6E6"/>
<path d="M325.507 64.7977C325.996 64.7977 326.391 64.402 326.391 63.9138C326.391 63.4257 325.996 63.03 325.507 63.03C325.019 63.03 324.624 63.4257 324.624 63.9138C324.624 64.402 325.019 64.7977 325.507 64.7977Z" fill="#3F3D56"/>
<path d="M348.112 72.7934C347.675 73.2789 347.136 73.6626 346.535 73.9176C345.934 74.1726 345.284 74.2926 344.631 74.2692C343.978 74.2458 343.338 74.0795 342.756 73.7821C342.175 73.4847 341.665 73.0633 341.264 72.5477L323.631 77.4298L320.952 71.5361L342.274 66.0453C343.185 65.4287 344.29 65.1677 345.38 65.3116C346.471 65.4555 347.47 65.9945 348.19 66.8263C348.91 67.658 349.299 68.7249 349.285 69.8247C349.27 70.9245 348.853 71.9807 348.112 72.7934Z" fill="#FFB8B8"/>
<path d="M325.725 77.5815L320.777 79.1608C315.397 84.846 313.493 80.7206 307.151 80.2937C305.958 80.2135 305.024 79.234 304.376 77.3831C303.493 74.7803 303.581 71.946 304.624 69.4031L313.433 47.3265L317.12 44.3057L322.268 50.4747L318.316 67.4347L324.804 70.7419L325.725 77.5815Z" fill="#418596"/>
</g>
<defs>
<clipPath id="clip0_118_1560">
<rect width="380" height="243.121" fill="white" transform="translate(0 0.939392)"/>
</clipPath>
</defs>
</svg>
