<svg width="380" height="269" viewBox="0 0 380 269" fill="none" xmlns="http://www.w3.org/2000/svg">
<g clip-path="url(#clip0_114_1561)">
<path d="M22.4598 226.889L10.8098 217.03C12.1421 209.126 15.3836 201.667 20.2529 195.301C20.6445 209.544 35.2443 219.083 40.2683 232.417C41.8034 236.588 42.3803 241.051 41.9562 245.475C41.5321 249.898 40.1179 254.17 37.8184 257.973L36.6464 268.734C30.2841 265.419 24.7161 260.763 20.3262 255.089C15.9363 249.414 12.8287 242.855 11.2177 235.864C10.3528 231.933 9.98629 227.909 10.1269 223.886C16.0919 225.701 22.4598 226.889 22.4598 226.889Z" fill="#F2F2F2"/>
<path d="M349.029 245.747L357.164 232.834C365.177 233.05 373.016 235.218 380 239.151C365.951 241.527 358.544 257.316 346.042 264.153C342.127 266.256 337.788 267.45 333.348 267.648C328.908 267.846 324.481 267.042 320.394 265.296L309.575 265.638C311.97 258.875 315.802 252.712 320.808 247.572C325.814 242.433 331.874 238.44 338.572 235.868C342.344 234.463 346.277 233.538 350.28 233.116C349.316 239.276 349.029 245.747 349.029 245.747Z" fill="#F2F2F2"/>
<path d="M91.5136 203.654L46.4043 201.007L52.5877 157.281L92.3382 200.124L91.5136 203.654Z" fill="#F2F2F2"/>
<path d="M85.7718 248.262L39.8379 245.171L45.9626 205.424L85.9789 245.178L85.7718 248.262Z" fill="#F2F2F2"/>
<path d="M342.375 63.8118V23.4224C342.375 20.3526 341.771 17.3128 340.596 14.4767C339.421 11.6406 337.699 9.06358 335.528 6.89289C333.358 4.7222 330.781 3.00032 327.945 1.82556C325.109 0.650788 322.069 0.0461426 318.999 0.0461426H233.429C230.359 0.046142 227.319 0.650788 224.483 1.82556C221.647 3.00032 219.07 4.7222 216.899 6.89289C214.728 9.06358 213.006 11.6406 211.832 14.4767C210.657 17.3128 210.052 20.3526 210.052 23.4224V245.002C210.052 251.201 212.515 257.147 216.899 261.531C221.283 265.915 227.229 268.378 233.428 268.378H318.999C325.199 268.378 331.145 265.915 335.528 261.531C339.912 257.147 342.375 251.201 342.375 245.002V92.5616C342.766 92.5616 343.141 92.4063 343.418 92.1298C343.694 91.8533 343.85 91.4783 343.85 91.0873V65.2861C343.85 64.8951 343.694 64.5201 343.418 64.2436C343.141 63.9671 342.766 63.8118 342.375 63.8118Z" fill="#3F3D56"/>
<path d="M337.4 23.5828V244.842C337.401 249.438 335.588 253.848 332.355 257.115C329.123 260.382 324.732 262.242 320.136 262.289C320.073 262.296 320.009 262.299 319.945 262.297H233.958C229.329 262.297 224.889 260.458 221.616 257.184C218.343 253.911 216.503 249.471 216.503 244.842V23.5828C216.503 18.9535 218.343 14.514 221.616 11.2406C224.889 7.96717 229.329 6.128 233.958 6.12757H244.393C243.88 7.38732 243.685 8.75384 243.824 10.1069C243.963 11.4599 244.433 12.7581 245.191 13.887C245.95 15.016 246.974 15.9412 248.175 16.5812C249.375 17.2212 250.714 17.5565 252.074 17.5575H301.097C302.456 17.5537 303.793 17.2166 304.992 16.5756C306.19 15.9346 307.213 15.0094 307.97 13.881C308.728 12.7527 309.197 11.4558 309.336 10.104C309.475 8.75214 309.281 7.38676 308.77 6.12756H319.945C324.574 6.12799 329.014 7.96715 332.287 11.2406C335.561 14.514 337.4 18.9535 337.4 23.5828Z" fill="white"/>
<path d="M318.469 256.896C318.469 259.188 318.397 261.462 318.253 263.716C318.19 263.723 318.126 263.726 318.063 263.724H232.078C228.188 263.724 224.409 262.425 221.341 260.032C218.273 257.64 216.092 254.292 215.144 250.518C214.978 249.86 214.853 249.192 214.769 248.518C214.671 247.772 214.622 247.021 214.623 246.27V147.666C221.239 147.993 227.812 148.922 234.26 150.44C234.891 150.586 235.519 150.74 236.141 150.899C236.181 150.908 236.221 150.921 236.261 150.93C236.892 151.089 237.519 151.257 238.142 151.429C251.435 155.08 263.913 161.224 274.911 169.533C275.543 170.006 276.17 170.492 276.793 170.982L276.912 171.075C277.954 171.896 278.981 172.739 279.991 173.601C280.216 173.791 280.441 173.986 280.662 174.184C281.205 174.652 281.748 175.129 282.278 175.611C294.007 186.168 303.318 199.134 309.574 213.621C309.781 214.094 309.98 214.571 310.179 215.048C310.258 215.242 310.338 215.436 310.417 215.631C310.492 215.807 310.563 215.984 310.634 216.161C315.826 229.113 318.486 242.942 318.469 256.896Z" fill="#3F3D56"/>
<path d="M210.525 86.4071C209.997 86.4065 209.492 86.1967 209.119 85.8236C208.746 85.4506 208.536 84.9448 208.535 84.4172V70.886C208.535 70.3583 208.745 69.8521 209.118 69.4789C209.491 69.1058 209.997 68.8961 210.525 68.8961C211.053 68.8961 211.559 69.1058 211.932 69.4789C212.305 69.8521 212.515 70.3583 212.515 70.886V84.4172C212.514 84.9448 212.304 85.4506 211.931 85.8236C211.558 86.1966 211.053 86.4065 210.525 86.4071Z" fill="#3F3D56"/>
<path d="M210.127 60.1406C209.6 60.14 209.094 59.9302 208.721 59.5571C208.348 59.1841 208.138 58.6783 208.137 58.1507V44.6195C208.137 44.0918 208.347 43.5856 208.72 43.2125C209.093 42.8393 209.599 42.6296 210.127 42.6296C210.655 42.6296 211.161 42.8393 211.534 43.2125C211.907 43.5856 212.117 44.0918 212.117 44.6195V58.1507C212.116 58.6783 211.907 59.1841 211.533 59.5571C211.16 59.9302 210.655 60.14 210.127 60.1406Z" fill="#3F3D56"/>
<path d="M263.058 8.4037C263.059 7.87614 263.269 7.37037 263.642 6.99733C264.015 6.62429 264.52 6.41444 265.048 6.41382H278.579C278.841 6.41343 279.1 6.46461 279.342 6.56444C279.583 6.66427 279.803 6.81078 279.988 6.9956C280.173 7.18041 280.32 7.39991 280.42 7.64153C280.52 7.88314 280.572 8.14215 280.572 8.40371C280.572 8.66528 280.52 8.92427 280.42 9.16589C280.32 9.40751 280.173 9.627 279.988 9.81182C279.803 9.99663 279.583 10.1431 279.342 10.243C279.1 10.3428 278.841 10.394 278.579 10.3936H265.048C264.52 10.393 264.015 10.1831 263.642 9.81009C263.269 9.43704 263.059 8.93126 263.058 8.4037Z" fill="white"/>
<path d="M210.525 109.49C209.997 109.489 209.492 109.279 209.119 108.906C208.746 108.533 208.536 108.028 208.535 107.5V93.9688C208.535 93.441 208.745 92.9349 209.118 92.5617C209.491 92.1885 209.997 91.9789 210.525 91.9789C211.053 91.9789 211.559 92.1885 211.932 92.5617C212.305 92.9349 212.515 93.441 212.515 93.9688V107.5C212.514 108.028 212.304 108.533 211.931 108.906C211.558 109.279 211.053 109.489 210.525 109.49Z" fill="#3F3D56"/>
<path d="M286.141 10.3936C287.24 10.3936 288.131 9.50268 288.131 8.4037C288.131 7.30472 287.24 6.41382 286.141 6.41382C285.042 6.41382 284.151 7.30472 284.151 8.4037C284.151 9.50268 285.042 10.3936 286.141 10.3936Z" fill="white"/>
<path opacity="0.2" d="M278.793 247.091C278.793 242.959 279.606 238.868 281.187 235.051C282.768 231.234 285.085 227.765 288.007 224.844C290.928 221.922 294.397 219.605 298.214 218.024C302.031 216.443 306.122 215.63 310.254 215.631H310.417C310.338 215.436 310.258 215.242 310.179 215.048C309.98 214.571 309.781 214.094 309.574 213.621H278.793V174.184H280.662C280.441 173.985 280.216 173.791 279.99 173.601C278.979 172.74 277.953 171.898 276.912 171.075L276.793 170.982V172.175H238.142V151.429C237.519 151.257 236.892 151.089 236.26 150.93C236.221 150.921 236.181 150.908 236.141 150.899V172.175H216.504V174.184H236.141V213.621H216.504V215.631H236.141V247.091H216.65C216.734 247.765 216.859 248.433 217.026 249.092H236.141V262.298H238.142V249.092H276.793V262.298H278.793V249.092H312.515V247.091H278.793ZM276.793 247.091H238.142V215.631H276.793V247.091ZM276.793 213.621H238.142V212.835C238.142 202.584 242.214 192.753 249.463 185.505C256.711 178.256 266.542 174.184 276.793 174.184V213.621Z" fill="black"/>
<path d="M105.406 102.863L83.9544 267.881L83.8175 268.932H82.9253L83.0622 267.881L104.532 102.748L105.406 102.863Z" fill="#E5E5E5"/>
<path d="M60.7447 103.071L37.0887 267.898L36.9386 268.949H36.0464L36.1966 267.898L59.8702 102.947L60.7447 103.071Z" fill="#E5E5E5"/>
<path d="M138.761 268.91L137.843 268.914L137.56 267.863L91.7983 97.8853L92.6508 97.6556L138.474 267.863L138.761 268.91Z" fill="#3F3D56"/>
<path d="M136.823 97.6491L135.974 97.89L184.198 268.001L185.048 267.76L136.823 97.6491Z" fill="#3F3D56"/>
<path d="M175.843 236.791L132.114 245.837L132.293 246.703L176.022 237.656L175.843 236.791Z" fill="#3F3D56"/>
<path d="M168.261 210.255L124.533 219.302L124.712 220.167L168.44 211.121L168.261 210.255Z" fill="#3F3D56"/>
<path d="M160.685 183.719L117.262 192.123L117.429 192.989L160.853 184.586L160.685 183.719Z" fill="#3F3D56"/>
<path d="M153.103 157.188L110.625 165.583L110.796 166.449L153.274 158.055L153.103 157.188Z" fill="#3F3D56"/>
<path d="M59.9978 103.04C59.3335 98.7007 60.4203 94.2752 63.019 90.737C65.6177 87.1989 69.5155 84.8381 73.8549 84.1738C78.1943 83.5096 82.6199 84.5963 86.158 87.195C89.6961 89.7938 92.057 93.6916 92.7212 98.0309L91.8482 98.1647C91.5378 96.1298 90.8295 94.1761 89.7638 92.4151C88.6981 90.6541 87.2959 89.1203 85.6372 87.9014C83.9786 86.6825 82.096 85.8023 80.0971 85.3112C78.0982 84.82 76.0221 84.7275 73.9874 85.039C71.9528 85.3504 69.9994 86.0597 68.2389 87.1263C66.4785 88.1929 64.9454 89.5959 63.7273 91.2552C62.5092 92.9144 61.63 94.7974 61.1399 96.7966C60.6498 98.7957 60.5583 100.872 60.8708 102.906L59.9978 103.04Z" fill="#3F3D56"/>
<path d="M104.236 103.238C103.878 101.093 103.946 98.8991 104.437 96.781C104.927 94.6629 105.83 92.6621 107.093 90.8929C108.357 89.1237 109.957 87.6208 111.801 86.47C113.646 85.3192 115.699 84.5431 117.844 84.186C119.988 83.8289 122.182 83.8978 124.3 84.3887C126.418 84.8797 128.419 85.783 130.188 87.0473C131.956 88.3115 133.459 89.9118 134.609 91.7568C135.759 93.6017 136.535 95.6552 136.891 97.7999L136.02 97.9449C135.335 93.8473 133.052 90.1892 129.671 87.775C126.29 85.3607 122.089 84.3878 117.991 85.0702C113.893 85.7526 110.234 88.0345 107.818 91.4141C105.402 94.7937 104.427 98.9944 105.107 103.093L104.236 103.238Z" fill="#3F3D56"/>
<path d="M149.877 139.283L141.388 159.934L169.045 159.733L166.233 139.237L149.877 139.283Z" fill="#FFB6B6"/>
<path d="M156.63 234.081L160.733 234.68L164.992 219.142L158.938 218.259L156.63 234.081Z" fill="#FFB6B6"/>
<path d="M155.908 231.909L162.449 232.468L162.044 235.246L167.588 240.404C167.862 240.658 168.047 240.994 168.117 241.361C168.186 241.729 168.137 242.109 167.975 242.446C167.813 242.783 167.548 243.06 167.218 243.236C166.888 243.412 166.51 243.477 166.14 243.423L158.42 242.297L157.49 239.355L156.57 242.027L153.659 241.603L155.908 231.909Z" fill="#2F2E41"/>
<path d="M109.222 222.605L112.495 225.15L123.868 213.738L119.038 209.982L109.222 222.605Z" fill="#FFB6B6"/>
<path d="M109.666 220.36L115.079 224.074L113.355 226.29L115.632 233.512C115.745 233.869 115.74 234.252 115.62 234.606C115.499 234.96 115.268 235.266 114.961 235.479C114.654 235.693 114.287 235.803 113.913 235.793C113.539 235.783 113.178 235.654 112.883 235.424L106.724 230.635L107.367 227.617L105.248 229.487L102.926 227.681L109.666 220.36Z" fill="#2F2E41"/>
<path d="M142.95 155.034L140.226 158.642L132.976 190.186L116.497 212.443L122.036 217.762L143.055 197.37L153.37 175.583L158.589 195.707L157.264 222.649L166.098 222.207C168.492 190.941 172.237 158.771 167.825 149.736C164.918 152.272 161.523 154.189 157.85 155.368C154.176 156.548 150.301 156.965 146.46 156.596L142.95 155.034Z" fill="#2F2E41"/>
<path d="M157.53 105.889L164.499 113.509C166.028 115.181 166.998 117.289 167.272 119.539C167.397 120.561 167.376 121.595 167.21 122.61L165.708 133.617L168.358 150.4C168.358 150.4 164.581 152.704 157.316 157.467C154.351 159.411 140.516 159.38 140.533 158.792C140.611 156.07 143.046 148.736 143.624 139.8C144.339 128.771 143.402 115.608 145.833 109.325C148.8 101.655 157.53 105.889 157.53 105.889Z" fill="#418596"/>
<path d="M133.615 154.72C133.919 154.278 134.123 153.775 134.211 153.245C134.3 152.716 134.271 152.173 134.127 151.656C133.983 151.139 133.728 150.66 133.378 150.252C133.029 149.845 132.595 149.518 132.106 149.297L132.379 140.911L127.323 139.503L127.105 151.35C126.787 152.196 126.79 153.129 127.114 153.973C127.438 154.816 128.061 155.512 128.863 155.927C129.666 156.343 130.593 156.449 131.469 156.227C132.344 156.004 133.108 155.468 133.615 154.72Z" fill="#FFB6B6"/>
<path d="M126.872 120.87C127.021 120.479 127.25 120.123 127.544 119.826C127.837 119.528 128.19 119.294 128.578 119.14C131.269 118.009 142.902 108.503 143.33 108.682L147.024 106.859C147.16 106.861 150.798 106.947 152.582 108.97C152.953 109.398 153.228 109.9 153.386 110.443C153.544 110.987 153.583 111.558 153.5 112.117C152.978 116.937 136.486 127.762 134.739 127.689L132.887 141.373L133.608 146.601L126.864 146.793L124.785 139.095C124.487 138.534 124.11 127.901 126.872 120.87Z" fill="#418596"/>
<path d="M153.91 113.56C154.455 109.819 152.354 106.415 149.216 105.957C146.078 105.499 143.092 108.161 142.546 111.903C142.001 115.644 144.102 119.048 147.24 119.506C150.378 119.963 153.364 117.301 153.91 113.56Z" fill="#418596"/>
<path d="M103.215 138.021L103.044 137.155L144.066 127.875V128.758L103.215 138.021Z" fill="#3F3D56"/>
<path d="M284.818 75.603H269.085C265.691 75.603 262.94 78.3542 262.94 81.748V81.748C262.94 85.1418 265.691 87.893 269.085 87.893H284.818C288.212 87.893 290.963 85.1418 290.963 81.748C290.963 78.3542 288.212 75.603 284.818 75.603Z" fill="#E6E6E6"/>
<path d="M314.007 100.183H239.896C236.503 100.183 233.751 102.934 233.751 106.328V106.328C233.751 109.722 236.503 112.473 239.896 112.473H314.007C317.401 112.473 320.152 109.722 320.152 106.328C320.152 102.934 317.401 100.183 314.007 100.183Z" fill="#E6E6E6"/>
<path d="M282.206 118.58H208.096C204.702 118.58 201.951 121.331 201.951 124.725V124.725C201.951 128.118 204.702 130.87 208.096 130.87H282.206C285.6 130.87 288.351 128.118 288.351 124.725C288.351 121.331 285.6 118.58 282.206 118.58Z" fill="#418596"/>
<path d="M379.896 268.291C379.896 268.36 379.882 268.429 379.856 268.493C379.83 268.556 379.791 268.614 379.742 268.663C379.693 268.712 379.635 268.751 379.571 268.777C379.507 268.804 379.439 268.817 379.37 268.817L117.595 268.91L116.677 268.914L62.6512 268.932H61.759L15.7721 268.949H14.8799L0.525591 268.954C0.386196 268.954 0.252508 268.898 0.153941 268.8C0.0553738 268.701 0 268.568 0 268.428C0 268.289 0.0553738 268.155 0.153941 268.056C0.252508 267.958 0.386196 267.903 0.525591 267.903L15.0301 267.898H15.9223L61.8959 267.88H62.7881L116.394 267.863H117.308L162.986 267.845H163.587L379.37 267.766C379.439 267.765 379.507 267.779 379.571 267.805C379.635 267.832 379.693 267.87 379.742 267.919C379.791 267.968 379.83 268.026 379.856 268.09C379.882 268.154 379.896 268.222 379.896 268.291Z" fill="#CACACA"/>
<path d="M164.904 98.279C163.586 100.03 161.71 101.281 159.586 101.824C157.462 102.367 155.216 102.17 153.219 101.267C151.222 100.363 149.592 98.8061 148.597 96.8523C147.603 94.8984 147.304 92.6642 147.749 90.5176C148.194 88.371 149.357 86.4399 151.046 85.0425C152.735 83.645 154.85 82.8644 157.042 82.8294C159.234 82.7943 161.372 83.5068 163.105 84.8495C164.838 86.1922 166.062 88.085 166.576 90.2163C166.603 90.332 166.627 90.447 166.65 90.5663C166.921 91.9022 166.905 93.2805 166.605 94.61C166.304 95.9395 165.724 97.19 164.904 98.279Z" fill="#FFB6B6"/>
<path d="M167.415 90.6779C167.171 89.4685 167.263 90.0934 167.015 88.8878C167.066 89.4714 166.939 90.0568 166.65 90.5663L155.282 88.908L156.246 82.2999C159.769 81.4658 163.189 80.8176 164.799 83.5476C166.552 83.8033 168.131 84.7448 169.189 86.1648C170.248 87.5848 170.699 89.3671 170.443 91.1197L167.415 90.6779Z" fill="#2F2E41"/>
<path d="M160.705 108.459C160.715 108.335 160.72 108.207 160.72 108.082C160.699 107.162 160.579 106.247 160.364 105.352C160.171 104.382 159.974 103.407 159.776 102.436C159.96 104.173 159.572 105.921 158.67 107.417C156.97 105.642 158.094 103.073 155.585 102.707C149.554 101.828 144.646 95.3594 145.527 89.3238C146.407 83.2926 149.652 79.1597 155.683 80.0395C161.719 80.92 166.211 84.3962 165.449 90.4446C157.764 91.109 162.198 108.052 160.705 108.459Z" fill="#2F2E41"/>
<path d="M147.435 85.5451C149.66 85.5451 151.464 83.7415 151.464 81.5167C151.464 79.2919 149.66 77.4883 147.435 77.4883C145.21 77.4883 143.407 79.2919 143.407 81.5167C143.407 83.7415 145.21 85.5451 147.435 85.5451Z" fill="#2F2E41"/>
<path d="M152.214 78.1904C151.838 77.3775 151.268 76.6697 150.553 76.1299C149.839 75.59 149.002 75.2347 148.117 75.0955C148.74 75.3773 149.285 75.808 149.702 76.3497C150.12 76.8915 150.398 77.5276 150.511 78.202C150.625 78.8764 150.571 79.5685 150.354 80.2171C150.137 80.8658 149.764 81.4512 149.268 81.9218L150.083 81.2217C150.305 81.4109 150.581 81.5241 150.872 81.5449C151.163 81.5656 151.453 81.4929 151.7 81.3372C151.942 81.1744 152.143 80.9588 152.29 80.7068C152.437 80.4548 152.524 80.1728 152.546 79.8821C152.585 79.2989 152.47 78.7156 152.214 78.1904Z" fill="#2F2E41"/>
<path d="M203.494 120.798C203.015 120.556 202.489 120.421 201.952 120.404C201.416 120.387 200.882 120.487 200.389 120.699C199.895 120.91 199.454 121.227 199.097 121.628C198.739 122.028 198.474 122.502 198.319 123.016L189.972 123.861L189.249 129.059L201.02 127.7C201.9 127.902 202.825 127.775 203.618 127.341C204.411 126.908 205.017 126.198 205.322 125.348C205.627 124.497 205.609 123.564 205.272 122.726C204.935 121.887 204.303 121.201 203.494 120.798Z" fill="#FFB6B6"/>
<path d="M170.841 131.985C170.434 131.889 170.051 131.71 169.717 131.459C169.383 131.207 169.105 130.889 168.9 130.524C167.422 128.008 156.452 117.743 156.572 117.295L154.274 113.877C154.258 113.742 153.859 110.125 155.627 108.086C156.001 107.662 156.463 107.323 156.98 107.094C157.498 106.865 158.058 106.75 158.624 106.758C163.47 106.635 175.654 121.972 175.814 123.714L190.363 123.296L195.448 121.886L196.535 128.545L189.183 131.628C188.666 131.999 178.178 133.787 170.841 131.985Z" fill="#418596"/>
</g>
<defs>
<clipPath id="clip0_114_1561">
<rect width="380" height="268.908" fill="white" transform="translate(0 0.0461426)"/>
</clipPath>
</defs>
</svg>
